<svg height="512pt" viewBox="0 -53 512 512" width="512pt" xmlns="http://www.w3.org/2000/svg"><path d="m455.984375 59.746094c-13.183594-13.925782-34.855469-15.035156-49.335937-2.53125-.175782.152344-.347657.3125-.515626.480468l-31.789062 31.628907c-1.746094-5.113281-4.648438-9.800781-8.578125-13.730469-7.085937-7.082031-16.542969-10.601562-25.945313-10.425781.140626-9.433594-3.398437-18.910157-10.519531-26.027344-9.3125-9.308594-22.652343-12.496094-34.648437-9.355469-1.125-6.792968-4.183594-13.285156-9.167969-18.558594-12.785156-13.53125-34.09375-15.03125-48.511719-3.40625-.277344.222657-.542968.460938-.792968.710938l-73.964844 73.710938-10.769532-40.1875c-5.679687-21.195313-27.546874-33.816407-48.75-28.140626-10.269531 2.75-18.855468 9.335938-24.171874 18.539063-5.304688 9.1875-6.722657 19.882813-3.996094 30.132813l14.804687 58.472656c6.363281 25.136718 15.566407 49.519531 27.394531 72.585937l-21.984374 21.980469-8.242188-8.242188c-3.90625-3.902343-10.234375-3.902343-14.140625 0l-54.945313 54.9375c-1.878906 1.875-2.929687 4.417969-2.929687 7.070313s1.050781 5.195313 2.929687 7.070313l8.238282 8.238281-22.722656 22.71875c-1.875 1.875-2.929688 4.417969-2.929688 7.070312 0 2.652344 1.054688 5.195313 2.929688 7.074219l81.234374 81.214844c1.953126 1.953125 4.511719 2.929687 7.070313 2.929687s5.117187-.980469 7.070313-2.929687l22.726562-22.722656 7.777344 7.777343c1.953125 1.953125 4.511718 2.929688 7.070312 2.929688s5.117188-.976563 7.070313-2.929688l54.945312-54.933593c1.875-1.875 2.929688-4.417969 2.929688-7.070313s-1.054688-5.195313-2.929688-7.074219l-7.777343-7.769531 22.445312-22.441406c5.414062 1.875 13.609375 3.894531 23.8125 3.914062h.128906c16.414063 0 41.351563-5.441406 67.179688-31.257812 3.902344-3.90625 3.90625-10.238281 0-14.144531-3.902344-3.902344-10.234375-3.902344-14.140625 0-39.144531 39.140624-73.078125 21.660156-74.433594 20.933593-3.898437-2.171875-8.773437-1.496093-11.9375 1.664063l-27.195313 27.191406-67.089843-67.078125 27.191406-27.183594c3.125-3.128906 3.828125-7.9375 1.726563-11.828125-12.730469-23.550781-22.519532-48.652344-29.085938-74.601562l-14.820312-58.539063-.035157-.132812c-1.371093-5.109375-.667969-10.441407 1.976563-15.023438 2.644531-4.578125 6.917968-7.855469 12.027344-9.226562 10.550781-2.824219 21.429687 3.457031 24.257812 14.003906l15.253906 56.910156c.925782 3.449219 3.617188 6.144531 7.070313 7.070313 3.453125.925781 7.132812-.0625 9.65625-2.585938l85.785156-85.527344c6.339844-4.800781 15.496094-4.023437 21.054687 1.859376 5.59375 5.917968 5.636719 15.378906.132813 21.652343l-12.960937 12.960938c-3.90625 3.902343-3.90625 10.234375-.003907 14.140625 1.953125 1.953125 4.515625 2.929687 7.074219 2.929687s5.117188-.976562 7.070312-2.925781l18.667969-18.664062c1.277344-1.277344 2.410157-2.417969 2.898438-2.90625 6.207031-5.152344 15.519531-4.679688 21.332031 1.136718 5.828125 5.824219 6.28125 15.171875 1.070312 21.375l-21.570312 21.566406c-3.90625 3.902344-3.90625 10.234376-.003906 14.140626 1.953125 1.953124 4.511718 2.929687 7.074218 2.929687 2.558594 0 5.117188-.976563 7.070313-2.925781l21.722656-21.722656c6.203125-5.0625 15.390625-4.617188 21.101563 1.09375 2.980468 2.976562 4.621094 6.941406 4.628906 11.140624-.007812 3.789063-1.359375 7.4375-3.808594 10.273438-.15625.175781-.300781.359375-.4375.542969l-20.875 20.871093c-3.90625 3.90625-3.90625 10.238282-.003906 14.144532 1.953125 1.953125 4.515625 2.929687 7.074219 2.929687 2.558593 0 5.117187-.976562 7.070312-2.929687l74.6875-74.5625c6.367188-5.289063 15.753907-4.726563 21.496094 1.339844 5.546875 5.867187 5.554687 15.300781.042969 21.589843-2.003906 2.007813-90.695313 90.703125-90.695313 90.703125-3.902343 3.90625-3.902343 10.238282.003907 14.144532 3.90625 3.902343 10.234374 3.902343 14.140624-.003907 0 0 91.070313-91.074219 91.265626-91.292969 12.585937-13.972656 12.488281-35.445312-.226563-48.886718zm-372.472656 212.148437c1.089843-5.308593 2.882812-8.683593 6.179687-11.644531 6.214844-5.582031 15.847656-5.550781 21.476563.078125 4.8125 4.808594 4.152343 15.011719 3.554687 18.152344-.652344 3.238281.332032 6.589843 2.636719 8.953125 2.304687 2.367187 5.628906 3.441406 8.878906 2.878906 3.984375-.691406 14.152344-.769531 18.425781 3.503906 5.625 5.621094 5.660157 15.253906.078126 21.464844-2.957032 3.289062-6.335938 5.082031-11.65625 6.183594-5.703126 1.179687-26.265626-1.527344-44.507813-5.003906-3.5-18.304688-6.230469-38.902344-5.066406-44.566407zm-4.082031-43.296875 9.398437 9.394532c-4.484375 1.550781-8.746094 4.007812-12.503906 7.378906-8.550781 7.683594-11.175781 16.519531-12.402344 22.496094-1.246094 6.054687-.433594 16.929687.988281 27.796874l-26.28125-26.273437zm11.804687 152.964844-67.089844-67.074219 15.652344-15.648437 67.089844 67.074218zm44.648437-14.941406-26.519531-26.511719c7.046875.914063 14.097657 1.570313 19.839844 1.570313 3.085937 0 5.796875-.1875 7.925781-.628907 5.980469-1.238281 14.820313-3.867187 22.488282-12.402343 3.375-3.753907 5.832031-8.019532 7.378906-12.503907l9.6875 9.683594zm0 0"/><path d="m329.761719 230.984375c-.652344 0-1.3125-.070313-1.953125-.199219-.636719-.132812-1.269532-.320312-1.867188-.570312-.609375-.25-1.191406-.5625-1.730468-.921875-.550782-.359375-1.0625-.78125-1.519532-1.238281-.460937-.460938-.882812-.972657-1.242187-1.519532-.359375-.542968-.667969-1.121094-.917969-1.730468-.25-.601563-.441406-1.230469-.570312-1.871094-.128907-.640625-.199219-1.300782-.199219-1.949219s.070312-1.3125.199219-1.949219c.128906-.640625.320312-1.273437.570312-1.882812.25-.597656.558594-1.179688.917969-1.71875.359375-.550782.78125-1.058594 1.242187-1.519532.457032-.460937.96875-.878906 1.519532-1.242187.539062-.359375 1.117187-.667969 1.730468-.917969.597656-.25 1.230469-.449218 1.867188-.570312 1.292968-.261719 2.621094-.261719 3.910156 0 .632812.121094 1.261719.320312 1.871094.570312.601562.25 1.179687.558594 1.71875.917969.550781.363281 1.0625.78125 1.523437 1.242187.457031.460938.878907.96875 1.25 1.519532.359375.539062.667969 1.121094.917969 1.71875.25.609375.441406 1.242187.570312 1.882812.128907.640625.191407 1.300782.191407 1.949219s-.0625 1.308594-.191407 1.949219c-.128906.640625-.320312 1.269531-.570312 1.871094-.25.609374-.558594 1.1875-.917969 1.730468-.371093.546875-.792969 1.058594-1.25 1.519532-.460937.457031-.972656.878906-1.523437 1.238281-.539063.359375-1.117188.671875-1.71875.921875-.609375.25-1.238282.4375-1.871094.570312-.648438.128906-1.308594.199219-1.957031.199219zm0 0"/><path d="m472.121094 54.597656c-2.5625 0-5.121094-.976562-7.074219-2.929687-3.902344-3.90625-3.902344-10.238281.003906-14.140625l3.269531-3.265625c3.902344-3.90625 10.234376-3.902344 14.140626.003906s3.902343 10.238281-.003907 14.140625l-3.265625 3.265625c-1.953125 1.953125-4.511718 2.925781-7.070312 2.925781zm0 0"/><path d="m416.066406 31.382812c-5.523437 0-10-4.476562-10-10v-6.65625c0-5.519531 4.476563-10 10-10 5.519532 0 10 4.480469 10 10v6.65625c0 5.523438-4.480468 10-10 10zm0 0"/><path d="m502 110.644531s0 0-.003906 0l-6.65625-.003906c-5.519532 0-9.996094-4.476563-9.996094-10 0-5.519531 4.476562-10 10-10l6.660156.003906c5.519532 0 9.996094 4.476563 9.996094 10 0 5.523438-4.476562 10-10 10zm0 0"/></svg>