<svg height="496pt" viewBox="0 0 496 496" width="496pt" xmlns="http://www.w3.org/2000/svg"><path d="m88 376c13.230469 0 24-10.769531 24-24s-10.769531-24-24-24c-1.382812 0-2.761719.121094-4.113281.359375-5.511719-9.945313-16.023438-16.359375-27.886719-16.359375s-22.375 6.414062-27.886719 16.359375c-1.351562-.238281-2.730469-.359375-4.113281-.359375-13.230469 0-24 10.769531-24 24s10.769531 24 24 24zm-72-24c0-4.414062 3.585938-8 8-8 1.535156 0 3 .441406 4.335938 1.304688 2.191406 1.40625 4.921874 1.664062 7.34375.6875 2.417968-.976563 4.191406-3.070313 4.792968-5.609376 1.6875-7.285156 8.0625-12.382812 15.527344-12.382812s13.839844 5.097656 15.527344 12.382812c.59375 2.539063 2.375 4.632813 4.792968 5.609376 2.414063.976562 5.160157.71875 7.34375-.6875 1.335938-.863282 2.800782-1.304688 4.335938-1.304688 4.414062 0 8 3.585938 8 8s-3.585938 8-8 8h-64c-4.414062 0-8-3.585938-8-8zm0 0"/><path d="m483.3125 480-6.054688-6.054688c-5.691406-5.6875-11.851562-10.714843-18.265624-15.296874l5.105468-11.914063c10.429688-24.328125 15.742188-50.09375 15.78125-76.878906.082032-54.871094-13.765625-109.351563-40.046875-157.527344l-8.816406-16.152344c-2.816406-5.144531-11.230469-5.144531-14.046875 0l-8.929688 16.367188c-26.191406 48.03125-40.039062 102.335937-40.039062 157.050781 0 21.421875 3.671875 42.367188 10.511719 62.527344-.839844-.015625-1.671875-.121094-2.511719-.121094-17.855469 0-35.273438 3.390625-51.878906 9.863281-16.402344-6.40625-33.984375-9.863281-52.121094-9.863281-10.839844 0-21.558594 1.28125-32 3.671875v-190.726563c1.519531-1.746093 2.832031-3.640624 3.953125-5.679687l78.390625 78.390625c1.558594 1.558594 3.609375 2.34375 5.65625 2.34375s4.097656-.785156 5.65625-2.34375l7.601562-7.601562c12.085938-12.085938 18.742188-28.160157 18.742188-45.246094v-1.609375c0-17.09375-6.65625-33.167969-18.742188-45.253907l-41.945312-41.945312h124.6875c4.425781 0 8-3.585938 8-8v-23.433594c0-12.832031-4.992188-24.878906-14.023438-33.902344l-.5625-.566406c-.015624-.019531-.03125-.027344-.039062-.042968-9.078125-9.0625-21.136719-14.054688-33.941406-14.054688h-60.121094l58.34375-58.34375c1.503906-1.496094 2.34375-3.535156 2.34375-5.65625 0-2.128906-.839844-4.160156-2.34375-5.664062l-7.601562-7.59375c-12.085938-12.085938-28.160157-18.742188-45.246094-18.742188h-1.609375c-17.09375 0-33.167969 6.65625-45.246094 18.742188l-55.199219 55.195312c-4.296875 4.292969-7.875 9.117188-10.746094 14.292969-2.871093-5.175781-6.449218-9.992188-10.742187-14.292969l-55.203125-55.195312c-12.09375-12.085938-28.167969-18.742188-45.253906-18.742188h-1.609375c-17.09375 0-33.167969 6.65625-45.246094 18.742188l-7.601563 7.601562c-1.511718 1.496094-2.351562 3.527344-2.351562 5.65625 0 2.121094.839844 4.160156 2.34375 5.65625l58.34375 58.34375h-60.121094c-12.8125 0-24.863281 4.992188-33.941406 14.054688-.007812.015624-.023438.023437-.039062.042968l-.523438.527344c-9.070312 9.0625-14.0625 21.117188-14.0625 33.941406v23.433594c0 4.414062 3.574219 8 8 8h124.6875l-41.945312 41.945312c-12.085938 12.085938-18.742188 28.160157-18.742188 45.246094v1.609375c0 17.09375 6.65625 33.167969 18.742188 45.246094l7.601562 7.601563c1.558594 1.566406 3.609375 2.351562 5.65625 2.351562s4.097656-.785156 5.65625-2.34375l78.390625-78.390625c1.121094 2.039063 2.433594 3.933594 3.953125 5.679687v202.222657c-19.640625-9.839844-41.390625-15.167969-64-15.167969-38.246094 0-74.207031 14.894531-101.257812 41.945312l-6.054688 6.054688h-20.6875v16h496v-16zm-99.3125-110.40625c0-52.042969 13.167969-103.707031 38.097656-149.394531l1.902344-3.496094 1.792969 3.28125c25 45.832031 38.167969 97.640625 38.09375 150.136719-.039063 24.328125-4.910157 47.984375-14.488281 70.3125l-4.070313 9.503906c-4.335937-2.410156-8.769531-4.617188-13.328125-6.554688v-123.382812h-16v117.710938c-6.535156-1.886719-13.238281-3.222657-20.046875-4.175782-7.839844-20.480468-11.953125-41.949218-11.953125-63.941406zm-8 78.40625c31.351562 0 60.886719 11.382812 84.152344 32h-80.839844l-6.054688-6.054688c-8.617187-8.617187-18.226562-15.855468-28.441406-21.921874 10.167969-2.574219 20.574219-4.023438 31.183594-4.023438zm-19.847656 32h-120.839844l-6.054688-6.054688c-4.503906-4.503906-9.335937-8.539062-14.304687-12.359374 17.664063-8.875 37.144531-13.585938 57.046875-13.585938 31.351562 0 60.886719 11.382812 84.152344 32zm-100.152344-288c0 8.824219-7.175781 16-16 16s-16-7.175781-16-16 7.175781-16 16-16 16 7.175781 16 16zm-40-20.945312c-2.503906-2.863282-5.488281-5.246094-8.855469-7.070313 3.457031-3.761719 6.429688-7.847656 8.855469-12.214844 2.425781 4.375 5.40625 8.453125 8.855469 12.214844-3.367188 1.832031-6.351563 4.207031-8.855469 7.070313zm-24 4.945312c8.824219 0 16 7.175781 16 16s-7.175781 16-16 16-16-7.175781-16-16 7.175781-16 16-16zm8 46.863281c6.320312-1.640625 11.832031-5.144531 16-9.917969 4.167969 4.773438 9.679688 8.277344 16 9.917969v1.136719c0 8.824219-7.175781 16-16 16s-16-7.175781-16-16zm24 113.136719h-16v-16h16zm0-32h-16v-16h16zm-8-48c2.777344 0 5.425781-.464844 8-1.136719v17.136719h-16v-17.136719c2.574219.671875 5.222656 1.136719 8 1.136719zm-8 191.183594v-95.183594h16v88.320312c-5.464844 1.945313-10.792969 4.265626-16 6.863282zm121.945312-217.925782c9.0625 9.0625 14.054688 21.117188 14.054688 33.933594v1.609375c0 9.65625-2.839844 18.878907-8.113281 26.71875-.574219-20.503906-8.75-39.703125-23.320313-54.273437l-26.910156-26.910156-11.3125 11.3125 26.914062 26.910156c11.796876 11.808594 18.382813 27.417968 18.6875 44.066406l-70.28125-70.28125c12.902344-4.121094 22.335938-16.085938 22.335938-30.34375 0-5.855469-1.695312-11.273438-4.449219-16h9.136719zm76.101563-107.90625.578125.59375c6.046875 6.039063 9.375 14.070313 9.375 22.621094v4.160156c-13.550781-13.359374-31.457031-20.726562-50.503906-20.726562h-69.496094v16h69.496094c14.761718 0 28.625 5.6875 39.152344 16h-156.648438v-15.433594c0-8.550781 3.328125-16.582031 9.414062-22.664062l.523438-.527344c6.046875-6.046875 14.085938-9.375 22.628906-9.375h102.859375c8.542969 0 16.566407 3.320312 22.621094 9.351562zm-167.992187-36.09375 55.203124-55.195312c9.0625-9.070312 21.117188-14.0625 33.933594-14.0625h1.609375c9.65625 0 18.878907 2.839844 26.710938 8.113281-20.496094.574219-39.695313 8.757813-54.265625 23.320313l-26.910156 26.910156 11.3125 11.3125 26.910156-26.914062c11.800781-11.804688 27.417968-18.382813 44.058594-18.6875l-55.929688 55.945312h-20.121094c-12.8125 0-24.863281 4.992188-33.980468 14.097656l-.523438.527344c-9.070312 9.0625-14.0625 21.117188-14.0625 33.941406v2.792969c-5.199219-7.800781-8-16.96875-8-26.558594v-1.609375c0-12.816406 4.992188-24.871094 14.054688-33.933594zm-162.6875-45.203124c16.648437.304687 32.257812 6.882812 44.058593 18.6875l26.910157 26.914062 11.3125-11.3125-26.914063-26.910156c-14.558594-14.5625-33.757813-22.746094-54.261719-23.320313 7.847656-5.273437 17.0625-8.113281 26.71875-8.113281h1.609375c12.824219 0 24.871094 4.992188 33.933594 14.054688l55.203125 55.191406c9.070312 9.074218 14.0625 21.128906 14.0625 33.945312v1.609375c0 9.589844-2.800781 18.75-8 26.550781v-2.792968c0-12.832032-4.992188-24.878906-14.023438-33.902344l-.601562-.617188c-9.078125-9.046874-21.136719-14.039062-33.941406-14.039062h-20.121094zm-49.953126 81.847656.539063-.542969c6.054687-6.039063 14.085937-9.359375 22.613281-9.359375h102.859375c8.542969 0 16.582031 3.328125 22.589844 9.335938l.601563.617187c6.054687 6.03125 9.382812 14.0625 9.382812 22.613281v15.433594h-156.640625c10.527344-10.3125 24.394531-16 39.152344-16h69.488281v-16h-69.496094c-19.046875 0-36.953125 7.367188-50.503906 20.726562v-4.160156c0-8.550781 3.328125-16.582031 9.414062-22.664062zm62.585938 142.90625v-1.609375c0-12.824219 4.992188-24.871094 14.054688-33.941407l53.257812-53.257812h9.136719c-2.753907 4.726562-4.449219 10.144531-4.449219 16 0 14.257812 9.433594 26.222656 22.335938 30.34375l-70.28125 70.28125c.304687-16.648438 6.882812-32.257812 18.6875-44.066406l26.914062-26.910156-11.3125-11.3125-26.910156 26.910156c-14.5625 14.570312-22.738282 33.769531-23.320313 54.273437-5.273437-7.832031-8.113281-17.054687-8.113281-26.710937zm40 183.191406c31.351562 0 60.886719 11.382812 84.152344 32h-168.304688c23.265625-20.617188 52.800782-32 84.152344-32zm0 0"/></svg>