<svg width="20" height="17" viewBox="0 0 20 17" fill="none" xmlns="http://www.w3.org/2000/svg">
<g clip-path="url(#clip0)">
<path d="M2.94678 17H9.26581V10.957H6.9955V8.96484H9.26581V6.47461C9.26581 5.10148 10.5389 3.98438 12.1037 3.98438H14.9416V5.97656H12.6713C12.0453 5.97656 11.5361 6.42338 11.5361 6.97266V8.96484H14.8392L14.4608 10.957H11.5361V17H16.6443C18.2091 17 19.4822 15.8829 19.4822 14.5098V2.49023C19.4822 1.1171 18.2091 0 16.6443 0H2.94678C1.38195 0 0.108887 1.1171 0.108887 2.49023V14.5098C0.108887 15.8829 1.38195 17 2.94678 17ZM1.24404 2.49023C1.24404 1.66638 2.00791 0.996094 2.94678 0.996094H16.6443C17.5832 0.996094 18.347 1.66638 18.347 2.49023V14.5098C18.347 15.3336 17.5832 16.0039 16.6443 16.0039H12.6713V11.9531H15.4224L16.1792 7.96875H12.6713V6.97266H16.0767V2.98828H12.1037C9.9129 2.98828 8.13065 4.5522 8.13065 6.47461V7.96875H5.86034V11.9531H8.13065V16.0039H2.94678C2.00791 16.0039 1.24404 15.3336 1.24404 14.5098V2.49023Z" fill="white" fill-opacity="0.5"/>
</g>
<defs>
<clipPath id="clip0">
<rect width="19.3733" height="17" fill="white" transform="translate(0.108887)"/>
</clipPath>
</defs>
</svg>
