<svg width="19" height="17" viewBox="0 0 19 17" fill="none" xmlns="http://www.w3.org/2000/svg">
<g clip-path="url(#clip0)">
<path d="M3.34771 17H16.2843C17.7622 17 18.9645 15.8829 18.9645 14.5098V2.49023C18.9645 1.1171 17.7622 0 16.2843 0H3.34771C1.86981 0 0.66748 1.1171 0.66748 2.49023V14.5098C0.66748 15.8829 1.86981 17 3.34771 17ZM1.73957 2.49023C1.73957 1.66638 2.461 0.996094 3.34771 0.996094H16.2843C17.171 0.996094 17.8924 1.66638 17.8924 2.49023V14.5098C17.8924 15.3336 17.171 16.0039 16.2843 16.0039H3.34771C2.461 16.0039 1.73957 15.3336 1.73957 14.5098V2.49023Z" fill="white" fill-opacity="0.5"/>
<path d="M9.81599 12.9824C12.4761 12.9824 14.6404 10.9716 14.6404 8.5C14.6404 6.02844 12.4761 4.01758 9.81599 4.01758C7.15586 4.01758 4.99158 6.02844 4.99158 8.5C4.99158 10.9716 7.15586 12.9824 9.81599 12.9824ZM9.81599 5.01367C11.8851 5.01367 13.5683 6.57759 13.5683 8.5C13.5683 10.4224 11.8851 11.9863 9.81599 11.9863C7.74691 11.9863 6.06367 10.4224 6.06367 8.5C6.06367 6.57759 7.74691 5.01367 9.81599 5.01367Z" fill="white" fill-opacity="0.5"/>
<path d="M15.1765 5.01367C16.0632 5.01367 16.7846 4.34338 16.7846 3.51953C16.7846 2.69568 16.0632 2.02539 15.1765 2.02539C14.2898 2.02539 13.5684 2.69568 13.5684 3.51953C13.5684 4.34338 14.2898 5.01367 15.1765 5.01367ZM15.1765 3.02148C15.472 3.02148 15.7125 3.24496 15.7125 3.51953C15.7125 3.79411 15.472 4.01758 15.1765 4.01758C14.881 4.01758 14.6405 3.79411 14.6405 3.51953C14.6405 3.24496 14.881 3.02148 15.1765 3.02148Z" fill="white" fill-opacity="0.5"/>
</g>
<defs>
<clipPath id="clip0">
<rect width="18.297" height="17" fill="white" transform="translate(0.66748)"/>
</clipPath>
</defs>
</svg>
