<svg width="20" height="18" viewBox="0 0 20 18" fill="none" xmlns="http://www.w3.org/2000/svg">
<g clip-path="url(#clip0)">
<path d="M20 3.61984C18.7814 3.67203 18.808 3.66777 18.6702 3.67848L19.3919 1.76343C19.3919 1.76343 17.1391 2.53343 16.568 2.67118C15.068 1.4186 12.8385 1.36325 11.2445 2.27347C9.93927 3.01903 9.23866 4.29935 9.47235 5.79582C6.93199 5.46829 4.7916 4.34947 3.10173 2.4634L2.56726 1.86698L2.16789 2.5484C1.66313 3.40946 1.49552 4.39397 1.69579 5.32053C1.77798 5.70066 1.91765 6.0632 2.11113 6.40268L1.65263 6.23761L1.59824 6.94939C1.54311 7.67243 1.80222 8.51645 2.29146 9.20694C2.42921 9.4014 2.60658 9.61495 2.83139 9.82561L2.59446 9.79183L2.88357 10.6074C3.26358 11.679 4.05287 12.5081 5.07717 12.9689C4.0542 13.3723 3.22781 13.6296 1.86947 14.0448L0.626709 14.4243L1.77458 15.0074C2.21223 15.2298 3.75873 15.9723 5.28676 16.1951C8.68335 16.69 12.5076 16.2869 15.0821 14.1327C17.2505 12.3181 17.9621 9.73703 17.8143 7.05101C17.7919 6.64438 17.9118 6.25629 18.1518 5.95842C18.6327 5.362 19.9971 3.62383 20 3.61984V3.61984ZM17.2442 5.32671C16.8455 5.82123 16.6458 6.45281 16.6816 7.10485C16.8308 9.81421 16.0373 11.9153 14.3232 13.3496C12.3209 15.0252 9.09115 15.6828 5.4625 15.154C4.80535 15.0583 4.12618 14.8439 3.56407 14.6298C4.70292 14.2657 5.58237 13.9412 7.00264 13.3167L8.98532 12.4448L6.79631 12.3146C5.74777 12.2522 4.87467 11.7801 4.33799 11.0135C4.62296 10.9981 4.89773 10.9553 5.17132 10.8844L7.25909 10.3442L5.15388 9.86516C4.13091 9.63239 3.54781 9.06371 3.23875 8.62755C3.03581 8.34094 2.90323 8.04734 2.82371 7.77666C3.03478 7.82926 3.28087 7.86675 3.67773 7.90328L5.62627 8.08235L4.08243 6.9634C2.97004 6.15727 2.52425 4.94617 2.85105 3.78189C6.32273 7.1275 10.3989 6.87606 10.8093 6.9645C10.7189 6.14945 10.7166 6.14752 10.6929 6.06993C10.1675 4.34412 11.319 3.46782 11.8384 3.17119C12.9233 2.5517 14.6454 2.45832 15.8382 3.47895C16.0959 3.69922 16.4442 3.78588 16.7703 3.71062C17.063 3.64305 17.3031 3.5715 17.5383 3.49364L17.0488 4.7925L17.6737 4.79291C17.5557 4.93985 17.4143 5.11577 17.2442 5.32671Z" fill="white" fill-opacity="0.5"/>
</g>
<defs>
<clipPath id="clip0">
<rect width="19.3733" height="18" fill="white" transform="translate(0.626709)"/>
</clipPath>
</defs>
</svg>
